{"asset":{"generator":"3D Builder","version":"2.0"},"scene":0,"scenes":[{"nodes":[0,14,15]}],"nodes":[{"children":[1,2,3,4,5,6,7,8,9,10,11,12,13]},{"mesh":0,"matrix":[39.3699951171875,0,0,0,0,-4.6932691475376487E-6,-39.369991302490234,0,0,39.369991302490234,-4.6932691475376487E-6,0,-0.00012324815907049924,-0.043669730424880981,4.067352294921875,1]},{"mesh":1,"matrix":[39.3699951171875,0,0,0,0,-4.6932691475376487E-6,-39.369991302490234,0,0,39.369991302490234,-4.6932691475376487E-6,0,-0.00012324815907049924,-0.043669730424880981,4.067352294921875,1]},{"mesh":2,"matrix":[39.3699951171875,0,0,0,0,-4.6932691475376487E-6,-39.369991302490234,0,0,39.369991302490234,-4.6932691475376487E-6,0,-0.00012324815907049924,-0.043669730424880981,4.067352294921875,1]},{"mesh":3,"matrix":[39.3699951171875,0,0,0,0,-4.6932691475376487E-6,-39.369991302490234,0,0,39.369991302490234,-4.6932691475376487E-6,0,-0.00012324815907049924,-0.043669730424880981,4.067352294921875,1]},{"mesh":4,"matrix":[39.3699951171875,0,0,0,0,-4.6932691475376487E-6,-39.369991302490234,0,0,39.369991302490234,-4.6932691475376487E-6,0,-0.00012324815907049924,-0.043669730424880981,4.067352294921875,1]},{"mesh":5,"matrix":[39.3699951171875,0,0,0,0,-4.6932691475376487E-6,-39.369991302490234,0,0,39.369991302490234,-4.6932691475376487E-6,0,-0.00012324815907049924,-0.043669730424880981,4.067352294921875,1]},{"mesh":6,"matrix":[39.3699951171875,0,0,0,0,-4.6932691475376487E-6,-39.369991302490234,0,0,39.369991302490234,-4.6932691475376487E-6,0,-0.00012324815907049924,-0.043669730424880981,4.067352294921875,1]},{"mesh":7,"matrix":[39.3699951171875,0,0,0,0,-4.6932691475376487E-6,-39.369991302490234,0,0,39.369991302490234,-4.6932691475376487E-6,0,-0.00012324815907049924,-0.043669730424880981,4.067352294921875,1]},{"mesh":8,"matrix":[39.3699951171875,0,0,0,0,-4.6932691475376487E-6,-39.369991302490234,0,0,39.369991302490234,-4.6932691475376487E-6,0,-0.00012324815907049924,-0.043669730424880981,4.067352294921875,1]},{"mesh":9,"matrix":[39.3699951171875,0,0,0,0,-4.6932691475376487E-6,-39.369991302490234,0,0,39.369991302490234,-4.6932691475376487E-6,0,-0.00012324815907049924,-0.043669730424880981,4.067352294921875,1]},{"mesh":10,"matrix":[39.3699951171875,0,0,0,0,-4.6932691475376487E-6,-39.369991302490234,0,0,39.369991302490234,-4.6932691475376487E-6,0,-0.00012324815907049924,-0.043669730424880981,4.067352294921875,1]},{"mesh":11,"matrix":[39.3699951171875,0,0,0,0,-4.6932691475376487E-6,-39.369991302490234,0,0,39.369991302490234,-4.6932691475376487E-6,0,-0.00012324815907049924,-0.043669730424880981,4.067352294921875,1]},{"mesh":12,"matrix":[39.3699951171875,0,0,0,0,-4.6932691475376487E-6,-39.369991302490234,0,0,39.369991302490234,-4.6932691475376487E-6,0,-0.00012324815907049924,-0.043669730424880981,4.067352294921875,1]},{"mesh":13,"matrix":[39.370098114013672,0,0,0,0,-4.6932814257161226E-6,-39.370094299316406,0,0,39.370094299316406,-4.6932814257161226E-6,0,-0.00012324799899943173,-0.043669812381267548,4.0673494338989258,1]},{"children":[16,17]},{"mesh":14,"matrix":[39.3699951171875,0,0,0,0,-4.6932691475376487E-6,-39.369991302490234,0,0,39.369991302490234,-4.6932691475376487E-6,0,-0.00012324815907049924,-0.043669730424880981,4.067352294921875,1]},{"mesh":15,"matrix":[39.3699951171875,0,0,0,0,-4.6932691475376487E-6,-39.369991302490234,0,0,39.369991302490234,-4.6932691475376487E-6,0,-0.00012324815907049924,-0.043669730424880981,4.067352294921875,1]}],"meshes":[{"primitives":[{"attributes":{"POSITION":0,"TEXCOORD_0":1},"mode":4,"indices":2,"material":0}]},{"primitives":[{"attributes":{"POSITION":3,"TEXCOORD_0":4},"mode":4,"indices":5,"material":0}]},{"primitives":[{"attributes":{"POSITION":6,"TEXCOORD_0":7},"mode":4,"indices":8,"material":0}]},{"primitives":[{"attributes":{"POSITION":9,"TEXCOORD_0":10},"mode":4,"indices":11,"material":0}]},{"primitives":[{"attributes":{"POSITION":12,"TEXCOORD_0":13},"mode":4,"indices":14,"material":0}]},{"primitives":[{"attributes":{"POSITION":15,"TEXCOORD_0":16},"mode":4,"indices":17,"material":0}]},{"primitives":[{"attributes":{"POSITION":18,"TEXCOORD_0":19},"mode":4,"indices":20,"material":0}]},{"primitives":[{"attributes":{"POSITION":21,"TEXCOORD_0":22},"mode":4,"indices":23,"material":0}]},{"primitives":[{"attributes":{"POSITION":24,"TEXCOORD_0":25},"mode":4,"indices":26,"material":0}]},{"primitives":[{"attributes":{"POSITION":27,"TEXCOORD_0":28},"mode":4,"indices":29,"material":0}]},{"primitives":[{"attributes":{"POSITION":30,"TEXCOORD_0":31},"mode":4,"indices":32,"material":0}]},{"primitives":[{"attributes":{"POSITION":33,"TEXCOORD_0":34},"mode":4,"indices":35,"material":0}]},{"primitives":[{"attributes":{"POSITION":36,"TEXCOORD_0":37},"mode":4,"indices":38,"material":0}]},{"primitives":[{"attributes":{"POSITION":39,"TEXCOORD_0":40},"mode":4,"indices":41,"material":1}]},{"primitives":[{"attributes":{"POSITION":42,"TEXCOORD_0":43},"mode":4,"indices":44,"material":2}]},{"primitives":[{"attributes":{"POSITION":45,"TEXCOORD_0":46},"mode":4,"indices":47,"material":2}]}],"materials":[{"pbrMetallicRoughness":{"baseColorFactor":[1,1,1,1],"metallicFactor":0,"roughnessFactor":1,"baseColorTexture":{"index":0,"texCoord":0}},"alphaMode":"OPAQUE"},{"pbrMetallicRoughness":{"baseColorFactor":[1,1,1,1],"metallicFactor":0,"roughnessFactor":1,"baseColorTexture":{"index":1,"texCoord":0}},"alphaMode":"OPAQUE"},{"pbrMetallicRoughness":{"baseColorFactor":[1,1,1,1],"metallicFactor":0,"roughnessFactor":1,"baseColorTexture":{"index":2,"texCoord":0}},"alphaMode":"OPAQUE"}],"textures":[{"source":0,"sampler":0},{"source":1,"sampler":0},{"source":2,"sampler":0}],"images":[{"uri":"lambert2SG_baseColor.png"},{"uri":"lambert5SG_baseColor.png"},{"uri":"lambert6SG_baseColor.png"}],"samplers":[{"magFilter":9729,"wrapS":10497,"wrapT":10497}],"accessors":[{"bufferView":0,"byteOffset":0,"count":4607,"componentType":5126,"type":"VEC3","min":[0.18494701385498047,0.0813693031668663,0.11314300447702408],"max":[0.29391300678253174,0.12515899538993835,0.22099100053310394]},{"bufferView":1,"byteOffset":0,"count":4607,"componentType":5126,"type":"VEC2"},{"bufferView":2,"byteOffset":0,"count":17730,"componentType":5125,"type":"SCALAR"},{"bufferView":3,"byteOffset":0,"count":74,"componentType":5126,"type":"VEC3","min":[0.10595300793647766,0.049619302153587341,0.0045325099490582943],"max":[0.11555400490760803,0.057544104754924774,0.011085700243711472]},{"bufferView":4,"byteOffset":0,"count":74,"componentType":5126,"type":"VEC2"},{"bufferView":5,"byteOffset":0,"count":336,"componentType":5125,"type":"SCALAR"},{"bufferView":6,"byteOffset":0,"count":74,"componentType":5126,"type":"VEC3","min":[0.11240500211715698,0.13912899792194366,0.0049897101707756519],"max":[0.12220900505781174,0.14583501219749451,0.010933300480246544]},{"bufferView":7,"byteOffset":0,"count":74,"componentType":5126,"type":"VEC2"},{"bufferView":8,"byteOffset":0,"count":336,"componentType":5125,"type":"SCALAR"},{"bufferView":9,"byteOffset":0,"count":62,"componentType":5126,"type":"VEC3","min":[0.25281599164009094,0.069939300417900085,0.048372901976108551],"max":[0.26013103127479553,0.085128508508205414,0.054062504321336746]},{"bufferView":10,"byteOffset":0,"count":62,"componentType":5126,"type":"VEC2"},{"bufferView":11,"byteOffset":0,"count":240,"componentType":5125,"type":"SCALAR"},{"bufferView":12,"byteOffset":0,"count":84,"componentType":5126,"type":"VEC3","min":[0.24443401396274567,0.126785010099411,0.045477300882339478],"max":[0.25037699937820435,0.14019601047039032,0.052589301019907]},{"bufferView":13,"byteOffset":0,"count":84,"componentType":5126,"type":"VEC2"},{"bufferView":14,"byteOffset":0,"count":384,"componentType":5125,"type":"SCALAR"},{"bufferView":15,"byteOffset":0,"count":61,"componentType":5126,"type":"VEC3","min":[0.24473901093006134,0.065722905099391937,0.045477300882339478],"max":[0.25007301568984985,0.079642102122306824,0.052081301808357239]},{"bufferView":16,"byteOffset":0,"count":61,"componentType":5126,"type":"VEC2"},{"bufferView":17,"byteOffset":0,"count":240,"componentType":5125,"type":"SCALAR"},{"bufferView":18,"byteOffset":0,"count":94,"componentType":5126,"type":"VEC3","min":[0.098079003393650055,0.12541300058364868,0.01459090132266283],"max":[0.1178399994969368,0.13176301121711731,0.027240101248025894]},{"bufferView":19,"byteOffset":0,"count":94,"componentType":5126,"type":"VEC2"},{"bufferView":20,"byteOffset":0,"count":432,"componentType":5125,"type":"SCALAR"},{"bufferView":21,"byteOffset":0,"count":94,"componentType":5126,"type":"VEC3","min":[0.097824998199939728,0.074308104813098907,0.01459090132266283],"max":[0.11763700842857361,0.080708906054496765,0.027240101248025894]},{"bufferView":22,"byteOffset":0,"count":94,"componentType":5126,"type":"VEC2"},{"bufferView":23,"byteOffset":0,"count":432,"componentType":5125,"type":"SCALAR"},{"bufferView":24,"byteOffset":0,"count":74,"componentType":5126,"type":"VEC3","min":[0.11225200444459915,0.060693703591823578,0.0050405105575919151],"max":[0.12226000428199768,0.067399300634860992,0.010933300480246544]},{"bufferView":25,"byteOffset":0,"count":74,"componentType":5126,"type":"VEC2"},{"bufferView":26,"byteOffset":0,"count":336,"componentType":5125,"type":"SCALAR"},{"bufferView":27,"byteOffset":0,"count":74,"componentType":5126,"type":"VEC3","min":[0.10600399971008301,0.14893300831317902,0.0045325099490582943],"max":[0.11555400490760803,0.15696001052856445,0.011085700243711472]},{"bufferView":28,"byteOffset":0,"count":74,"componentType":5126,"type":"VEC2"},{"bufferView":29,"byteOffset":0,"count":336,"componentType":5125,"type":"SCALAR"},{"bufferView":30,"byteOffset":0,"count":84,"componentType":5126,"type":"VEC3","min":[0.2527649998664856,0.12129800021648407,0.048017300665378571],"max":[0.2600800096988678,0.1368430107831955,0.05487530305981636]},{"bufferView":31,"byteOffset":0,"count":84,"componentType":5126,"type":"VEC2"},{"bufferView":32,"byteOffset":0,"count":384,"componentType":5125,"type":"SCALAR"},{"bufferView":33,"byteOffset":0,"count":84,"componentType":5126,"type":"VEC3","min":[0.25240901112556458,0.12465100735425949,0.055281702429056168],"max":[0.2600800096988678,0.13892599940299988,0.062952503561973572]},{"bufferView":34,"byteOffset":0,"count":84,"componentType":5126,"type":"VEC2"},{"bufferView":35,"byteOffset":0,"count":384,"componentType":5125,"type":"SCALAR"},{"bufferView":36,"byteOffset":0,"count":60,"componentType":5126,"type":"VEC3","min":[0.25286701321601868,0.067653298377990723,0.056399300694465637],"max":[0.2611980140209198,0.081724904477596283,0.0628001019358635]},{"bufferView":37,"byteOffset":0,"count":60,"componentType":5126,"type":"VEC2"},{"bufferView":38,"byteOffset":0,"count":240,"componentType":5125,"type":"SCALAR"},{"bufferView":39,"byteOffset":0,"count":3435,"componentType":5126,"type":"VEC3","min":[-0.29393702745437622,0.050245702266693115,0.0011092300992459059],"max":[0.26125603914260864,0.15636701881885529,0.19435201585292816]},{"bufferView":40,"byteOffset":0,"count":3435,"componentType":5126,"type":"VEC2"},{"bufferView":41,"byteOffset":0,"count":15726,"componentType":5125,"type":"SCALAR"},{"bufferView":42,"byteOffset":0,"count":135,"componentType":5126,"type":"VEC3","min":[0.2409760057926178,0.11613200604915619,0.20215700566768646],"max":[0.25061100721359253,0.12233800441026688,0.21167100965976715]},{"bufferView":43,"byteOffset":0,"count":135,"componentType":5126,"type":"VEC2"},{"bufferView":44,"byteOffset":0,"count":636,"componentType":5125,"type":"SCALAR"},{"bufferView":45,"byteOffset":0,"count":134,"componentType":5126,"type":"VEC3","min":[0.2409760057926178,0.084238000214099884,0.20215700566768646],"max":[0.25061100721359253,0.09044310450553894,0.21167100965976715]},{"bufferView":46,"byteOffset":0,"count":134,"componentType":5126,"type":"VEC2"},{"bufferView":47,"byteOffset":0,"count":636,"componentType":5125,"type":"SCALAR"}],"bufferViews":[{"buffer":0,"byteOffset":0,"byteLength":55284,"byteStride":12,"target":34962},{"buffer":0,"byteOffset":55284,"byteLength":36856,"byteStride":8,"target":34962},{"buffer":0,"byteOffset":92140,"byteLength":70920,"target":34963},{"buffer":0,"byteOffset":163060,"byteLength":888,"byteStride":12,"target":34962},{"buffer":0,"byteOffset":163948,"byteLength":592,"byteStride":8,"target":34962},{"buffer":0,"byteOffset":164540,"byteLength":1344,"target":34963},{"buffer":0,"byteOffset":165884,"byteLength":888,"byteStride":12,"target":34962},{"buffer":0,"byteOffset":166772,"byteLength":592,"byteStride":8,"target":34962},{"buffer":0,"byteOffset":167364,"byteLength":1344,"target":34963},{"buffer":0,"byteOffset":168708,"byteLength":744,"byteStride":12,"target":34962},{"buffer":0,"byteOffset":169452,"byteLength":496,"byteStride":8,"target":34962},{"buffer":0,"byteOffset":169948,"byteLength":960,"target":34963},{"buffer":0,"byteOffset":170908,"byteLength":1008,"byteStride":12,"target":34962},{"buffer":0,"byteOffset":171916,"byteLength":672,"byteStride":8,"target":34962},{"buffer":0,"byteOffset":172588,"byteLength":1536,"target":34963},{"buffer":0,"byteOffset":174124,"byteLength":732,"byteStride":12,"target":34962},{"buffer":0,"byteOffset":174856,"byteLength":488,"byteStride":8,"target":34962},{"buffer":0,"byteOffset":175344,"byteLength":960,"target":34963},{"buffer":0,"byteOffset":176304,"byteLength":1128,"byteStride":12,"target":34962},{"buffer":0,"byteOffset":177432,"byteLength":752,"byteStride":8,"target":34962},{"buffer":0,"byteOffset":178184,"byteLength":1728,"target":34963},{"buffer":0,"byteOffset":179912,"byteLength":1128,"byteStride":12,"target":34962},{"buffer":0,"byteOffset":181040,"byteLength":752,"byteStride":8,"target":34962},{"buffer":0,"byteOffset":181792,"byteLength":1728,"target":34963},{"buffer":0,"byteOffset":183520,"byteLength":888,"byteStride":12,"target":34962},{"buffer":0,"byteOffset":184408,"byteLength":592,"byteStride":8,"target":34962},{"buffer":0,"byteOffset":185000,"byteLength":1344,"target":34963},{"buffer":0,"byteOffset":186344,"byteLength":888,"byteStride":12,"target":34962},{"buffer":0,"byteOffset":187232,"byteLength":592,"byteStride":8,"target":34962},{"buffer":0,"byteOffset":187824,"byteLength":1344,"target":34963},{"buffer":0,"byteOffset":189168,"byteLength":1008,"byteStride":12,"target":34962},{"buffer":0,"byteOffset":190176,"byteLength":672,"byteStride":8,"target":34962},{"buffer":0,"byteOffset":190848,"byteLength":1536,"target":34963},{"buffer":0,"byteOffset":192384,"byteLength":1008,"byteStride":12,"target":34962},{"buffer":0,"byteOffset":193392,"byteLength":672,"byteStride":8,"target":34962},{"buffer":0,"byteOffset":194064,"byteLength":1536,"target":34963},{"buffer":0,"byteOffset":195600,"byteLength":720,"byteStride":12,"target":34962},{"buffer":0,"byteOffset":196320,"byteLength":480,"byteStride":8,"target":34962},{"buffer":0,"byteOffset":196800,"byteLength":960,"target":34963},{"buffer":0,"byteOffset":197760,"byteLength":41220,"byteStride":12,"target":34962},{"buffer":0,"byteOffset":238980,"byteLength":27480,"byteStride":8,"target":34962},{"buffer":0,"byteOffset":266460,"byteLength":62904,"target":34963},{"buffer":0,"byteOffset":329364,"byteLength":1620,"byteStride":12,"target":34962},{"buffer":0,"byteOffset":330984,"byteLength":1080,"byteStride":8,"target":34962},{"buffer":0,"byteOffset":332064,"byteLength":2544,"target":34963},{"buffer":0,"byteOffset":334608,"byteLength":1608,"byteStride":12,"target":34962},{"buffer":0,"byteOffset":336216,"byteLength":1072,"byteStride":8,"target":34962},{"buffer":0,"byteOffset":337288,"byteLength":2544,"target":34963}],"buffers":[{"byteLength":339832,"uri":"Velo3d.bin"}]}